<svg xmlns="http://www.w3.org/2000/svg" width="24.215" height="30.911" viewBox="0 0 24.215 30.911">
  <g id="Grupo_3061" data-name="Grupo 3061" transform="translate(-101.794 -1077.295)">
    <path id="Caminho_1277" data-name="Caminho 1277" d="M22.043,30.411H2.172A1.672,1.672,0,0,1,.5,28.739V2.172A1.672,1.672,0,0,1,2.172.5H18.243l5.472,5.515V28.739A1.672,1.672,0,0,1,22.043,30.411Z" transform="translate(101.794 1077.295)" fill="none" stroke="#89c33f" stroke-miterlimit="10" stroke-width="1"/>
    <path id="Caminho_1278" data-name="Caminho 1278" d="M30.721.5V5.055a.96.96,0,0,0,.96.96h4.457" transform="translate(89.372 1077.295)" fill="none" stroke="#89c33f" stroke-miterlimit="10" stroke-width="1"/>
    <line id="Linha_335" data-name="Linha 335" x2="8.125" transform="translate(106.938 1085.105)" fill="none" stroke="#89c33f" stroke-linecap="round" stroke-miterlimit="10" stroke-width="1"/>
    <line id="Linha_336" data-name="Linha 336" x2="13.155" transform="translate(106.938 1090.522)" fill="none" stroke="#89c33f" stroke-linecap="round" stroke-miterlimit="10" stroke-width="1"/>
    <line id="Linha_337" data-name="Linha 337" x2="13.155" transform="translate(106.938 1095.939)" fill="none" stroke="#89c33f" stroke-linecap="round" stroke-miterlimit="10" stroke-width="1"/>
    <line id="Linha_338" data-name="Linha 338" x2="13.155" transform="translate(106.938 1101.356)" fill="none" stroke="#89c33f" stroke-linecap="round" stroke-miterlimit="10" stroke-width="1"/>
  </g>
</svg>
