<svg xmlns="http://www.w3.org/2000/svg" xmlns:xlink="http://www.w3.org/1999/xlink" width="30.387" height="29.876" viewBox="0 0 30.387 29.876">
  <defs>
    <clipPath id="clip-path">
      <rect id="Retângulo_5289" data-name="Retângulo 5289" width="30.387" height="29.876" fill="none"/>
    </clipPath>
  </defs>
  <g id="Grupo_3069" data-name="Grupo 3069" transform="translate(0 0)">
    <g id="Grupo_3068" data-name="Grupo 3068" transform="translate(0 0)" clip-path="url(#clip-path)">
      <path id="Caminho_1291" data-name="Caminho 1291" d="M3.311,33.41h0A2.81,2.81,0,0,1,.5,30.6V18.074a2.811,2.811,0,1,1,5.621,0V30.6A2.81,2.81,0,0,1,3.311,33.41Z" transform="translate(-0.128 -3.906)" fill="none" stroke="#89c33f" stroke-linecap="round" stroke-miterlimit="10" stroke-width="1"/>
      <path id="Caminho_1292" data-name="Caminho 1292" d="M30.254,14.454l-1.227-.076a2.518,2.518,0,0,0,2.518-2.518v-.226a2.265,2.265,0,0,0-2.518-2.293l-5.93.639A1.767,1.767,0,0,1,21,8.245V3.568A2.917,2.917,0,0,0,18.473.5c-1.658-.039-2.535,1.15-2.535,2.982V7.624c0,1.892-1.718,3.711-3.034,5.07l-1.588,1.64a1.926,1.926,0,0,0-.543,1.34V26.345A1.926,1.926,0,0,0,12.7,28.271h2.357l13.141.737a2.519,2.519,0,0,0,2.518-2.519c0-1.391-1.127-2.027-2.518-2.027h.91a2.565,2.565,0,0,0,2.564-2.155,2.519,2.519,0,0,0-1.929-2.816h.513a2.518,2.518,0,1,0,0-5.036Z" transform="translate(-2.756 -0.128)" fill="none" stroke="#89c33f" stroke-linecap="round" stroke-linejoin="round" stroke-width="1"/>
    </g>
  </g>
</svg>
