<svg xmlns="http://www.w3.org/2000/svg" width="23.325" height="30.941" viewBox="0 0 23.325 30.941">
  <g id="Grupo_3065" data-name="Grupo 3065" transform="translate(-83.689 -2124.461)">
    <path id="Caminho_1285" data-name="Caminho 1285" d="M23.38,15.9a7.836,7.836,0,0,1-10.666,2.987A7.835,7.835,0,0,1,10.194,8.1,7.835,7.835,0,0,1,20.859,5.111,7.836,7.836,0,0,1,23.38,15.9Z" transform="translate(80.005 2122.896)" fill="none" stroke="#89c33f" stroke-linecap="round" stroke-miterlimit="10" stroke-width="1"/>
    <path id="Caminho_1286" data-name="Caminho 1286" d="M21.249,15.287a9.807,9.807,0,0,0-3.155-13.5A9.807,9.807,0,0,0,4.745,5.526,9.9,9.9,0,0,0,6.576,18.074L.726,27.966a1.62,1.62,0,1,0,2.789,1.649l5.85-9.891A9.9,9.9,0,0,0,21.249,15.287Z" transform="translate(83.794 2124.486)" fill="none" stroke="#89c33f" stroke-linecap="round" stroke-miterlimit="10" stroke-width="1"/>
    <path id="Caminho_1287" data-name="Caminho 1287" d="M23.482,15.287a9.808,9.808,0,0,1-13.35,3.739,9.808,9.808,0,0,1-3.154-13.5,9.807,9.807,0,0,1,13.35-3.738A9.807,9.807,0,0,1,23.482,15.287Z" transform="translate(81.562 2124.486)" fill="none" stroke="#89c33f" stroke-linecap="round" stroke-miterlimit="10" stroke-width="1"/>
    <line id="Linha_339" data-name="Linha 339" x2="2.789" y2="1.649" transform="translate(88.544 2145.649)" fill="none" stroke="#89c33f" stroke-linecap="round" stroke-miterlimit="10" stroke-width="1"/>
  </g>
</svg>
