<svg xmlns="http://www.w3.org/2000/svg" width="29.811" height="30.434" viewBox="0 0 29.811 30.434">
  <path id="Caminho_1293" data-name="Caminho 1293" d="M22.429,2.408C15.676-1.587,6.818.894,2.647,7.948s-2.079,16.01,4.674,20,15.61,1.514,19.782-5.54S29.182,6.4,22.429,2.408ZM5.106,9.4a11.61,11.61,0,0,1,15.8-4.426,10.883,10.883,0,0,1,1.273.883L5.6,22.446A11.865,11.865,0,0,1,5.106,9.4ZM24.645,20.958a11.611,11.611,0,0,1-15.8,4.426A11.066,11.066,0,0,1,7.567,24.5L24.154,7.914A11.866,11.866,0,0,1,24.645,20.958Z" transform="translate(0.03 0.037)" fill="none" stroke="#89c33f" stroke-linecap="round" stroke-miterlimit="10" stroke-width="1"/>
</svg>
