<svg xmlns="http://www.w3.org/2000/svg" width="32.199" height="30.344" viewBox="0 0 32.199 30.344">
  <g id="Grupo_3074" data-name="Grupo 3074" transform="translate(-107.52 -3615.828)">
    <path id="Caminho_1294" data-name="Caminho 1294" d="M2.278,37.992h0A1.778,1.778,0,0,1,.5,36.213V24.721a1.778,1.778,0,0,1,3.557,0V36.213A1.778,1.778,0,0,1,2.278,37.992Z" transform="translate(107.52 3606.108)" fill="none" stroke="#8ac43f" stroke-linecap="round" stroke-miterlimit="10" stroke-width="1"/>
    <path id="Caminho_1295" data-name="Caminho 1295" d="M35.622,32.842a1.791,1.791,0,0,0-2.478-.523l-6.4,3.422H19.231a1.051,1.051,0,0,1,0-2.1H25a1.88,1.88,0,0,0,1.908-1.775,1.824,1.824,0,0,0-1.824-1.872H21.717a4.091,4.091,0,0,1-2.256-.678L16.3,27.222a6.4,6.4,0,0,0-3.531-1.061H11.279a.965.965,0,0,0-.965.965V37.164a.965.965,0,0,0,.512.852l3.866,2.054v-.017l.755.384a4.775,4.775,0,0,0,2.172.521l8.134,0a3.782,3.782,0,0,0,2.121-.652l7.319-4.965A1.791,1.791,0,0,0,35.622,32.842Z" transform="translate(103.27 3604.715)" fill="none" stroke="#8ac43f" stroke-linecap="round" stroke-miterlimit="10" stroke-width="1"/>
    <circle id="Elipse_267" data-name="Elipse 267" cx="4.651" cy="4.651" r="4.651" transform="translate(118.767 3616.328)" fill="none" stroke="#8ac43f" stroke-linecap="round" stroke-miterlimit="10" stroke-width="1"/>
    <circle id="Elipse_268" data-name="Elipse 268" cx="2.925" cy="2.925" r="2.925" transform="translate(127.267 3625.979)" fill="none" stroke="#8ac43f" stroke-linecap="round" stroke-miterlimit="10" stroke-width="1"/>
  </g>
</svg>
