<svg xmlns="http://www.w3.org/2000/svg" width="29.376" height="35.934" viewBox="0 0 29.376 35.934">
  <g id="Grupo_3064" data-name="Grupo 3064" transform="translate(-106.534 -1764.764)">
    <path id="Caminho_1281" data-name="Caminho 1281" d="M.626,41.822l-.118-2.7A7.978,7.978,0,0,1,1.945,34.2l1.687-2.869a2.475,2.475,0,0,1,3.617-.883l7.57,5.309a2.476,2.476,0,0,1,.4,3.7s-1.569,1.831-2.057,2.469a8.449,8.449,0,0,1-4.339,3.089l-2.716.776A4.206,4.206,0,0,1,.626,41.822Z" transform="translate(106.535 1754.208)" fill="none" stroke="#89c33f" stroke-linecap="round" stroke-miterlimit="10" stroke-width="1"/>
    <path id="Caminho_1282" data-name="Caminho 1282" d="M9.418,34.124l1.382-3.7A10.177,10.177,0,0,1,12,28.135L20.375,16.2l2.974,2.086-8.37,11.936a10.231,10.231,0,0,1-1.737,1.911l-3.013,2.561A.5.5,0,0,1,9.418,34.124Z" transform="translate(103.322 1759.205)" fill="none" stroke="#89c33f" stroke-linecap="round" stroke-miterlimit="10" stroke-width="1"/>
    <path id="Caminho_1283" data-name="Caminho 1283" d="M29.682,15.114l-3.124-2.191,1.975-5.685,5.821,4.082Z" transform="translate(97.096 1762.451)" fill="none" stroke="#89c33f" stroke-linecap="round" stroke-miterlimit="10" stroke-width="1"/>
    <path id="Caminho_1284" data-name="Caminho 1284" d="M35.359,9.469l-7.564-5.3a1.833,1.833,0,0,1-.448-2.553l.232-.33A1.833,1.833,0,0,1,30.131.832l7.564,5.3a1.833,1.833,0,0,1,.448,2.553l-.232.33A1.833,1.833,0,0,1,35.359,9.469Z" transform="translate(96.93 1764.893)" fill="none" stroke="#89c33f" stroke-linecap="round" stroke-miterlimit="10" stroke-width="1"/>
  </g>
</svg>
