<svg xmlns="http://www.w3.org/2000/svg" width="27.775" height="30.935" viewBox="0 0 27.775 30.935">
  <g id="Grupo_3063" data-name="Grupo 3063" transform="translate(-56.423 -1077.421)">
    <path id="Caminho_1279" data-name="Caminho 1279" d="M13.888.5a13.378,13.378,0,0,0-6.8,24.9l-.78,3.835a.974.974,0,0,0,1.522.986l4.3-3.079a13.526,13.526,0,0,0,1.757.128A13.388,13.388,0,0,0,13.888.5Z" transform="translate(56.423 1077.421)" fill="none" stroke="#89c33f" stroke-linecap="round" stroke-miterlimit="10" stroke-width="1"/>
    <rect id="Retângulo_5287" data-name="Retângulo 5287" width="3.362" height="10.892" transform="translate(68.629 1088.115)" fill="none" stroke="#89c33f" stroke-linecap="round" stroke-miterlimit="10" stroke-width="1"/>
    <path id="Caminho_1280" data-name="Caminho 1280" d="M20.2,9.55a1.681,1.681,0,1,1-1.681-1.681A1.68,1.68,0,0,1,20.2,9.55Z" transform="translate(51.788 1075.331)" fill="none" stroke="#89c33f" stroke-linecap="round" stroke-miterlimit="10" stroke-width="1"/>
  </g>
</svg>
