<svg id="Grupo_1449" data-name="Grupo 1449" xmlns="http://www.w3.org/2000/svg" xmlns:xlink="http://www.w3.org/1999/xlink" width="150.652" height="78" viewBox="0 0 150.652 78">
  <defs>
    <clipPath id="clip-path">
      <rect id="Ret창ngulo_3803" data-name="Ret창ngulo 3803" width="150.652" height="78" fill="none"/>
    </clipPath>
  </defs>
  <g id="Grupo_1438" data-name="Grupo 1438" clip-path="url(#clip-path)">
    <path id="Caminho_590" data-name="Caminho 590" d="M150.652,62.206h-8.414L116.161,15.985,90.116,62.206H74.6v0a17.461,17.461,0,0,0,3.547-2.731,27,27,0,0,0,5.231-7.444,18.768,18.768,0,0,0,2.081-7.61,16.9,16.9,0,0,0-5.663-12.787,14.77,14.77,0,0,0-4.949-2.862,14.087,14.087,0,0,0,4.341-4.956,11.212,11.212,0,0,0,1.548-5A10.864,10.864,0,0,0,73.777,8.387a9.136,9.136,0,0,0-2.984-.5H52.358V21.632a23.558,23.558,0,1,0,0,19.623v12.5a30.931,30.931,0,1,1-6.7-49.526V0H73.229c.407,0,.811.025,1.213.065,7.419.712,13.248,7.9,13.248,16.664a18.61,18.61,0,0,1-2.165,8.8,16.537,16.537,0,0,1,8.345,14.339l.007-.007L116.354,0Z" fill="#053317" fill-rule="evenodd"/>
    <path id="Caminho_591" data-name="Caminho 591" d="M248.949,51.647l-23.036,41.09H245.2l.395-5.565h6.115l.333,5.565h20.075Zm-1.472,8.722h2.637l.1,1.731h-2.863Zm-.163,2.5h2.937l.165,2.75h-3.3Zm-.264,3.721h3.424l.2,3.333h-3.86Zm-.329,4.647h4.031l.355,5.933H246.3Zm-.972,13.7.432-6.083h5.027l.364,6.083Z" transform="translate(-132.787 -30.357)" fill="#29292e"/>
    <path id="Caminho_592" data-name="Caminho 592" d="M279.822,99.18H275.79l-.421,5.933h4.808Z" transform="translate(-161.857 -58.296)" fill="#fff"/>
    <path id="Caminho_593" data-name="Caminho 593" d="M280.687,72.806H278.05l-.123,1.731h2.864Z" transform="translate(-163.36 -42.794)" fill="#fff"/>
    <path id="Caminho_594" data-name="Caminho 594" d="M273.087,137.827l-.395,5.565h6.843l-.333-5.565Z" transform="translate(-160.284 -81.012)" fill="#fff"/>
    <path id="Caminho_595" data-name="Caminho 595" d="M280.276,87.909h-3.424l-.237,3.332h3.86Z" transform="translate(-162.59 -51.671)" fill="#fff"/>
    <path id="Caminho_596" data-name="Caminho 596" d="M280.489,78.882h-2.937l-.2,2.75h3.3Z" transform="translate(-163.025 -46.366)" fill="#fff"/>
    <path id="Caminho_597" data-name="Caminho 597" d="M274.465,117.656l-.432,6.083h5.823l-.364-6.083Z" transform="translate(-161.071 -69.156)" fill="#fff"/>
    <path id="Caminho_598" data-name="Caminho 598" d="M23.46,170.443a3.121,3.121,0,0,0-3.973,1.274,3.123,3.123,0,0,0,1.135,4.268,3.082,3.082,0,0,0,1.575.417,3.171,3.171,0,0,0,1.251-.261,3.612,3.612,0,0,0,1.089-.712l.672.73a4.516,4.516,0,0,1-1.424.944,4.256,4.256,0,0,1-3.764-.209,4.09,4.09,0,0,1-2.073-3.6,3.991,3.991,0,0,1,.561-2.079,4.06,4.06,0,0,1,1.535-1.489,4.315,4.315,0,0,1,2.143-.545,4.363,4.363,0,0,1,1.639.319,4.045,4.045,0,0,1,1.372.9l-.66.8a3.353,3.353,0,0,0-1.077-.759" transform="translate(-10.549 -99.444)" fill="#29292e"/>
    <path id="Caminho_599" data-name="Caminho 599" d="M44.743,169.894a1.762,1.762,0,0,1,.712,1.488,1.794,1.794,0,0,1-.394,1.176,1.916,1.916,0,0,1-1.077.643,2.11,2.11,0,0,1,1.326.677,2.012,2.012,0,0,1,.481,1.373,1.918,1.918,0,0,1-.782,1.627,3.538,3.538,0,0,1-2.16.585H39.329v-8.108h3.463a3.167,3.167,0,0,1,1.951.539m-.845,2.583a1.083,1.083,0,0,0,.411-.909,1.054,1.054,0,0,0-.411-.892,1.839,1.839,0,0,0-1.164-.3H40.441v2.421h2.293a1.864,1.864,0,0,0,1.164-.318m.249,3.625a1.136,1.136,0,0,0,.509-.99,1.1,1.1,0,0,0-.509-.962,2.487,2.487,0,0,0-1.413-.348H40.441v2.641h2.293a2.394,2.394,0,0,0,1.413-.342" transform="translate(-23.117 -99.544)" fill="#29292e"/>
    <path id="Caminho_600" data-name="Caminho 600" d="M63.755,177.462l-.857-1.969H58.623l-.845,1.969h-1.17l3.6-8.108h1.158l3.59,8.108Zm-4.691-2.977h3.405l-1.714-3.938Z" transform="translate(-33.273 -99.544)" fill="#29292e"/>
    <path id="Caminho_601" data-name="Caminho 601" d="M84.153,177.462l-.857-1.969H79.022l-.846,1.969H77.007l3.6-8.108h1.158l3.59,8.108Zm-4.691-2.977h3.4l-1.714-3.938Z" transform="translate(-45.263 -99.544)" fill="#29292e"/>
    <rect id="Ret창ngulo_3802" data-name="Ret창ngulo 3802" width="2.768" height="0.776" transform="translate(43.882 74.015)" fill="#29292e"/>
    <path id="Caminho_602" data-name="Caminho 602" d="M129.558,177.462l-.857-1.969h-4.274l-.845,1.969h-1.17l3.6-8.108h1.158l3.59,8.108Zm-4.691-2.977h3.405l-1.714-3.938Z" transform="translate(-71.951 -99.544)" fill="#29292e"/>
    <path id="Caminho_603" data-name="Caminho 603" d="M147.728,170.375a3.975,3.975,0,0,0-1.118-.179,2.064,2.064,0,0,0-1.129.272.845.845,0,0,0-.423.747.983.983,0,0,0,.255.7,1.8,1.8,0,0,0,.625.429q.37.156,1.031.365a11.631,11.631,0,0,1,1.332.486,2.309,2.309,0,0,1,.869.689,1.9,1.9,0,0,1,.359,1.21,2.022,2.022,0,0,1-.376,1.216,2.411,2.411,0,0,1-1.054.805,4,4,0,0,1-1.558.284,4.531,4.531,0,0,1-1.737-.348,4.711,4.711,0,0,1-1.459-.927l.5-.961a4.18,4.18,0,0,0,1.3.875,3.6,3.6,0,0,0,1.407.307,2.248,2.248,0,0,0,1.28-.319.992.992,0,0,0,.469-.863,1.006,1.006,0,0,0-.255-.706,1.8,1.8,0,0,0-.643-.441q-.388-.161-1.048-.359a10.735,10.735,0,0,1-1.321-.475,2.279,2.279,0,0,1-.863-.683,1.881,1.881,0,0,1-.353-1.193,1.913,1.913,0,0,1,.359-1.147,2.269,2.269,0,0,1,1.007-.764,3.943,3.943,0,0,1,1.506-.267,4.877,4.877,0,0,1,1.431.214,4.817,4.817,0,0,1,1.245.573l-.463,1a4.687,4.687,0,0,0-1.176-.538" transform="translate(-84.255 -99.411)" fill="#29292e"/>
    <path id="Caminho_604" data-name="Caminho 604" d="M162.648,169.355h5.282l-.012,1.007h-4.158v2.664H167.5v1.007h-3.741v3.428h-1.112Z" transform="translate(-95.601 -99.544)" fill="#29292e"/>
    <path id="Caminho_605" data-name="Caminho 605" d="M182.3,177.462l-.857-1.969h-4.274l-.845,1.969h-1.17l3.6-8.108h1.158l3.59,8.108Zm-4.691-2.977h3.405l-1.714-3.938Z" transform="translate(-102.951 -99.544)" fill="#29292e"/>
    <path id="Caminho_606" data-name="Caminho 606" d="M198.275,169.355h1.112v7.1h3.544v1.007h-4.656Z" transform="translate(-116.542 -99.544)" fill="#29292e"/>
    <path id="Caminho_607" data-name="Caminho 607" d="M210.469,169.355H216.8v1.019h-2.618v7.089h-1.112v-7.089h-2.606Z" transform="translate(-123.71 -99.544)" fill="#29292e"/>
    <path id="Caminho_608" data-name="Caminho 608" d="M232.361,169.731a4.091,4.091,0,0,1,1.546,1.489,3.959,3.959,0,0,1,.568,2.079,4.018,4.018,0,0,1-.568,2.091,4.109,4.109,0,0,1-1.546,1.506,4.472,4.472,0,0,1-4.3,0,4.106,4.106,0,0,1-1.546-1.506,4.018,4.018,0,0,1-.568-2.091,3.959,3.959,0,0,1,.568-2.079,4.1,4.1,0,0,1,1.54-1.489,4.525,4.525,0,0,1,4.3,0m-3.706.869a3.166,3.166,0,0,0-1.153,1.129,2.987,2.987,0,0,0-.428,1.569,3.017,3.017,0,0,0,.428,1.576,3.2,3.2,0,0,0,1.153,1.141,3.061,3.061,0,0,0,1.569.423,3,3,0,0,0,1.558-.423,3.184,3.184,0,0,0,1.135-1.141,3.047,3.047,0,0,0,.423-1.576,3.017,3.017,0,0,0-.423-1.569,3.151,3.151,0,0,0-1.135-1.129,3.026,3.026,0,0,0-1.558-.417,3.088,3.088,0,0,0-1.569.417" transform="translate(-132.809 -99.445)" fill="#29292e"/>
    <path id="Caminho_609" data-name="Caminho 609" d="M252.9,170.375a3.975,3.975,0,0,0-1.118-.179,2.064,2.064,0,0,0-1.129.272.845.845,0,0,0-.423.747.983.983,0,0,0,.255.7,1.8,1.8,0,0,0,.625.429q.37.156,1.031.365a11.65,11.65,0,0,1,1.332.486,2.305,2.305,0,0,1,.869.689,1.9,1.9,0,0,1,.359,1.21,2.022,2.022,0,0,1-.376,1.216,2.411,2.411,0,0,1-1.054.805,4,4,0,0,1-1.558.284,4.532,4.532,0,0,1-1.738-.348,4.711,4.711,0,0,1-1.459-.927l.5-.961a4.177,4.177,0,0,0,1.3.875,3.593,3.593,0,0,0,1.407.307,2.247,2.247,0,0,0,1.28-.319.991.991,0,0,0,.469-.863,1,1,0,0,0-.255-.706,1.8,1.8,0,0,0-.643-.441,11.045,11.045,0,0,0-1.048-.359,10.735,10.735,0,0,1-1.321-.475,2.282,2.282,0,0,1-.863-.683,1.883,1.883,0,0,1-.353-1.193,1.913,1.913,0,0,1,.359-1.147,2.268,2.268,0,0,1,1.008-.764,3.939,3.939,0,0,1,1.505-.267,4.876,4.876,0,0,1,1.431.214,4.811,4.811,0,0,1,1.245.573l-.463,1a4.687,4.687,0,0,0-1.176-.538" transform="translate(-146.071 -99.411)" fill="#29292e"/>
    <path id="Caminho_610" data-name="Caminho 610" d="M275.177,169.355h1.112v7.1h3.544v1.007h-4.656Z" transform="translate(-161.744 -99.544)" fill="#29292e"/>
    <path id="Caminho_611" data-name="Caminho 611" d="M287.371,169.355h6.336v1.019h-2.618v7.089h-1.112v-7.089h-2.606Z" transform="translate(-168.911 -99.544)" fill="#29292e"/>
    <path id="Caminho_612" data-name="Caminho 612" d="M311.268,169.883a3.885,3.885,0,0,1,1.5,1.453,4.2,4.2,0,0,1-.006,4.146,3.9,3.9,0,0,1-1.512,1.453,4.4,4.4,0,0,1-2.154.527H305.83v-8.108h3.3a4.351,4.351,0,0,1,2.137.527m-.579,6.179a2.892,2.892,0,0,0,1.089-1.089,3.216,3.216,0,0,0-.006-3.116,2.954,2.954,0,0,0-1.106-1.094,3.09,3.09,0,0,0-1.558-.4h-2.166v6.093h2.212a3.037,3.037,0,0,0,1.535-.394" transform="translate(-179.761 -99.544)" fill="#29292e"/>
    <path id="Caminho_613" data-name="Caminho 613" d="M331.774,177.462l-.857-1.969h-4.274l-.845,1.969h-1.17l3.6-8.108h1.158l3.59,8.108Zm-4.691-2.977h3.405l-1.714-3.938Z" transform="translate(-190.81 -99.544)" fill="#29292e"/>
  </g>
</svg>
